<?xml version="1.0" encoding="UTF-8" standalone="no"?>
<!DOCTYPE svg PUBLIC "-//W3C//DTD SVG 1.1//EN" "http://www.w3.org/Graphics/SVG/1.1/DTD/svg11.dtd">
<svg width="100%" height="100%" viewBox="0 0 640 480" version="1.1" xmlns="http://www.w3.org/2000/svg" xmlns:xlink="http://www.w3.org/1999/xlink" xml:space="preserve" xmlns:serif="http://www.serif.com/" style="fill-rule:evenodd;clip-rule:evenodd;stroke-linecap:round;stroke-linejoin:round;stroke-miterlimit:1.5;">
    <g transform="matrix(0.94257,0,0,2.19139,-796.559,-2002.75)">
        <g transform="matrix(1,0,0,1,-16.0489,0.142092)">
            <path d="M902.096,929.841L954.913,929.841L1023.84,1027.3L1023.84,929.841L1077.15,929.841L1077.15,1106L1023.84,1106L955.287,1009.27L955.287,1106L902.096,1106L902.096,929.841Z" style="fill:rgb(172,16,177);fill-rule:nonzero;"/>
        </g>
        <path d="M1277.31,1080.29C1284.38,1085.01 1289,1087.98 1291.17,1089.18C1294.41,1090.94 1298.79,1092.99 1304.28,1095.31L1288.55,1125.83C1280.64,1122.14 1272.81,1117.76 1265.07,1112.67C1257.33,1107.59 1251.92,1103.76 1248.84,1101.2C1236.35,1106.4 1220.7,1109.01 1201.89,1109.01C1174.09,1109.01 1152.15,1102.04 1136.09,1088.1C1117.11,1071.6 1107.62,1048.4 1107.62,1018.52C1107.62,989.523 1115.92,966.992 1132.53,950.93C1149.14,934.868 1172.34,926.836 1202.14,926.836C1232.52,926.836 1255.98,934.687 1272.5,950.389C1289.03,966.091 1297.29,988.561 1297.29,1017.8C1297.29,1043.84 1290.63,1064.67 1277.31,1080.29ZM1233.98,1052.41C1238.48,1044.64 1240.72,1033.02 1240.72,1017.56C1240.72,999.777 1237.29,987.079 1230.42,979.469C1223.56,971.858 1214.09,968.053 1202.02,968.053C1190.78,968.053 1181.66,971.939 1174.67,979.709C1167.68,987.48 1164.18,999.617 1164.18,1016.12C1164.18,1035.35 1167.6,1048.84 1174.42,1056.62C1181.25,1064.39 1190.61,1068.27 1202.52,1068.27C1206.35,1068.27 1209.97,1067.91 1213.38,1067.19C1208.63,1062.78 1201.14,1058.62 1190.9,1054.69L1199.77,1035.11C1204.76,1035.99 1208.65,1037.07 1211.44,1038.35C1214.23,1039.63 1219.66,1043 1227.74,1048.44C1229.65,1049.73 1231.73,1051.05 1233.98,1052.41Z" style="fill:rgb(172,16,177);fill-rule:nonzero;"/>
        <g transform="matrix(1,0,0,1,14.2114,0.665085)">
            <path d="M1327.5,929.841L1421.53,929.841C1442,929.841 1457.34,934.527 1467.54,943.9C1477.73,953.273 1482.83,966.611 1482.83,983.915C1482.83,1001.7 1477.28,1015.6 1466.16,1025.61C1455.05,1035.63 1438.09,1040.63 1415.28,1040.63L1384.32,1040.63L1384.32,1106L1327.5,1106L1327.5,929.841ZM1384.32,1004.94L1398.18,1004.94C1409.08,1004.94 1416.74,1003.12 1421.15,999.476C1425.56,995.831 1427.77,991.165 1427.77,985.477C1427.77,979.95 1425.85,975.263 1422.03,971.418C1418.19,967.573 1411,965.65 1400.42,965.65L1384.32,965.65L1384.32,1004.94Z" style="fill:rgb(172,16,177);fill-rule:nonzero;"/>
        </g>
    </g>
    <g transform="matrix(1.04445,0,0,1.05976,-18.0517,-15.2611)">
        <rect x="10.539" y="6.739" width="625.503" height="466.02" style="fill:rgb(117,25,109);fill-opacity:0;stroke:rgb(16,177,171);stroke-width:31.68px;"/>
    </g>
</svg>
